<svg xmlns="http://www.w3.org/2000/svg" xmlns:xlink="http://www.w3.org/1999/xlink" xmlns:inkscape="http://www.inkscape.org/namespaces/inkscape" version="1.1" width="192" height="192" viewBox="0 0 192 192">
<path transform="matrix(.1,0,0,-.1,0,192)" d="M1470 1920H450C201.48 1920 0 1718.52 0 1470V450C0 201.48 201.48 0 450 0H1470C1718.52 0 1920 201.48 1920 450V1470C1920 1718.52 1718.52 1920 1470 1920ZM1470 1920" fill="#242938"/>
<path transform="matrix(.1,0,0,-.1,0,192)" d="M1674.73 1025.78 1026.29 1674.45C1017.42 1683.36 1006.88 1690.39 995.27 1695.2 983.672 1700.04 971.211 1702.5 958.672 1702.5 946.09 1702.5 933.672 1700.04 922.07 1695.2 910.469 1690.39 899.922 1683.36 891.051 1674.45L756.449 1539.8 927.27 1368.95C966.988 1382.89 1012.46 1373.36 1044.1 1341.68 1059.18 1326.6 1069.69 1307.54 1074.45 1286.76 1079.22 1265.98 1078.05 1244.26 1071.09 1224.1L1235.7 1059.38C1275.51 1073.12 1321.48 1064.26 1353.24 1032.38 1363.83 1021.8 1372.23 1009.22 1377.93 995.43 1383.67 981.602 1386.6 966.801 1386.6 951.84 1386.6 936.879 1383.63 922.07 1377.93 908.238 1372.19 894.449 1363.79 881.91 1353.24 871.332 1342.66 860.738 1330.12 852.34 1316.33 846.641 1302.5 840.898 1287.7 837.969 1272.73 837.969 1257.81 837.969 1243.01 840.941 1229.18 846.641 1215.39 852.379 1202.81 860.781 1192.27 871.332 1158.83 904.77 1150.59 953.98 1167.46 995.199L1013.95 1148.79V744.57C1025.08 739.059 1035.27 731.801 1044.1 723.051 1054.69 712.461 1063.05 699.922 1068.79 686.09 1074.49 672.301 1077.46 657.5 1077.46 642.539 1077.46 627.578 1074.49 612.77 1068.79 598.949 1063.05 585.16 1054.69 572.578 1044.1 562.031 1033.55 551.449 1020.98 543.051 1007.19 537.34 993.359 531.602 978.59 528.672 963.629 528.672 948.672 528.672 933.871 531.602 920.078 537.34 906.289 543.051 893.711 551.449 883.16 562.031 872.578 572.578 864.18 585.121 858.441 598.949 852.73 612.77 849.77 627.578 849.77 642.539 849.77 657.5 852.73 672.301 858.441 686.09 864.18 699.922 872.578 712.461 883.16 723.051 894.141 733.98 906.371 742.301 920.43 747.891V1155.82C906.879 1161.41 894.141 1169.61 883.16 1180.66 867.191 1196.64 856.289 1216.99 851.949 1239.18 847.578 1261.33 849.922 1284.3 858.629 1305.16L690.16 1473.59 245.551 1029.26C236.641 1020.35 229.609 1009.8 224.801 998.199 219.961 986.602 217.5 974.141 217.5 961.602 217.5 949.02 219.961 936.559 224.801 924.961 229.609 913.359 236.641 902.77 245.551 893.91L894.02 245.27C902.891 236.371 913.441 229.34 925.039 224.531 936.641 219.691 949.059 217.23 961.641 217.23 974.18 217.23 986.641 219.691 998.238 224.531 1009.84 229.34 1020.39 236.371 1029.26 245.27L1674.73 889.961C1683.59 898.828 1690.66 909.41 1695.47 921.02 1700.27 932.621 1702.77 945.078 1702.77 957.621 1702.77 970.199 1700.27 982.66 1695.47 994.262 1690.66 1005.86 1683.59 1016.45 1674.73 1025.31" fill="#f1502f"/>
</svg>
