<svg xmlns="http://www.w3.org/2000/svg" xmlns:xlink="http://www.w3.org/1999/xlink" xmlns:inkscape="http://www.inkscape.org/namespaces/inkscape" version="1.1" width="192" height="192" viewBox="0 0 192 192">
<path transform="matrix(.1,0,0,-.1,0,192)" d="M450 1920H1470C1718.52 1920 1920 1671.48 1920 1470V450C1920 201.48 1718.52 0 1470 0H450C201.48 0 0 248.52 0 450V1470C0 1718.52 201.48 1920 450 1920ZM450 1920" fill="#242938"/>
<path transform="matrix(.1,0,0,-.1,0,192)" d="M955.699 478.051C1092.5 478.051 1223.67 532.34 1320.39 628.98 1417.11 725.621 1471.45 856.68 1471.45 993.359 1471.45 1130.04 1417.11 1261.13 1320.39 1357.77 1223.67 1454.41 1092.5 1508.71 955.699 1508.71 818.91 1508.71 687.73 1454.41 591.02 1357.77 494.262 1261.13 439.922 1130.04 439.922 993.359 439.922 856.68 494.262 725.621 591.02 628.98 687.73 532.34 818.91 478.051 955.699 478.051ZM955.699 478.051" fill="#ffd21e"/>
<path transform="matrix(.1,0,0,-.1,0,192)" d="M1471.45 993.359C1471.45 1130.04 1417.11 1261.13 1320.39 1357.77 1223.67 1454.41 1092.5 1508.71 955.699 1508.71 818.91 1508.71 687.73 1454.41 591.02 1357.77 494.262 1261.13 439.922 1130.04 439.922 993.359 439.922 856.68 494.262 725.621 591.02 628.98 687.73 532.34 818.91 478.051 955.699 478.051 1092.5 478.051 1223.67 532.34 1320.39 628.98 1417.11 725.621 1471.45 856.68 1471.45 993.359ZM380.551 993.359C380.551 1068.83 395.43 1143.55 424.34 1213.28 453.238 1283.01 495.621 1346.33 549.02 1399.69 602.422 1453.05 665.82 1495.39 735.59 1524.26 805.391 1553.16 880.16 1568.01 955.699 1568.01 1031.21 1568.01 1106.02 1553.16 1175.78 1524.26 1245.59 1495.39 1308.98 1453.05 1362.38 1399.69 1415.78 1346.33 1458.12 1283.01 1487.03 1213.28 1515.94 1143.55 1530.82 1068.83 1530.82 993.359 1530.82 840.98 1470.23 694.801 1362.38 587.031 1254.53 479.262 1108.24 418.711 955.699 418.711 803.16 418.711 656.879 479.262 549.02 587.031 441.172 694.801 380.551 840.98 380.551 993.359ZM380.551 993.359" fill="#ff9d0b"/>
<path transform="matrix(.1,0,0,-.1,0,192)" d="M1123.24 1133.52C1142.27 1126.99 1149.69 1088.12 1168.83 1098.2 1181.8 1105.08 1192.42 1115.66 1199.38 1128.55 1206.33 1141.48 1209.3 1156.17 1207.89 1170.78 1206.48 1185.35 1200.82 1199.22 1191.52 1210.59 1182.23 1221.95 1169.8 1230.31 1155.74 1234.61 1141.72 1238.91 1126.72 1238.95 1112.66 1234.73 1098.63 1230.51 1086.13 1222.19 1076.8 1210.9 1067.46 1199.57 1061.68 1185.74 1060.2 1171.17 1058.71 1156.56 1061.6 1141.88 1068.48 1128.91 1077.54 1111.84 1106.33 1139.57 1123.4 1133.67ZM773.711 1133.52C754.73 1126.99 747.148 1088.12 728.16 1098.2 715.199 1105.08 704.57 1115.66 697.621 1128.55 690.66 1141.48 687.699 1156.17 689.102 1170.78 690.512 1185.35 696.211 1199.22 705.469 1210.59 714.77 1221.95 727.191 1230.31 741.25 1234.61 755.27 1238.91 770.27 1238.95 784.34 1234.73 798.398 1230.51 810.859 1222.19 820.23 1210.9 829.57 1199.57 835.309 1185.74 836.801 1171.17 838.281 1156.56 835.391 1141.88 828.52 1128.91 819.449 1111.84 790.512 1139.57 773.59 1133.67ZM773.711 1133.52" fill="#3a3b45"/>
<path transform="matrix(.1,0,0,-.1,0,192)" d="M951.988 777.73C1097.89 777.73 1144.92 907.66 1144.92 974.379 1144.92 1009.1 1121.64 998.121 1084.22 979.73 1049.65 962.66 1003.2 939.102 952.148 939.102 845.43 939.102 759.18 1041.13 759.18 974.379 759.18 907.66 806.09 777.73 952.148 777.73ZM951.988 777.73" fill="#ff323d"/>
<path transform="matrix(.1,0,0,-.1,0,192)" d="M840.23 811.719C848.051 827.621 859.059 841.719 872.621 853.16 886.129 864.648 901.91 873.199 918.871 878.281 924.84 880.082 930.898 869.84 937.301 859.301 943.238 849.219 949.449 838.98 955.699 838.98 962.379 838.98 969.059 849.059 975.43 859.02 982.109 869.379 988.629 879.449 995.039 877.539 1026.91 867.422 1053.55 845.23 1069.22 815.699 1124.61 859.301 1144.92 930.469 1144.92 974.379 1144.92 1009.1 1121.64 998.121 1084.22 979.73L1082.15 978.672C1047.85 961.641 1002.15 939.102 951.988 939.102 901.84 939.102 856.25 961.641 821.84 978.672 783.238 997.809 759.02 1009.84 759.02 974.379 759.02 929.141 780.699 854.84 840.23 811.719ZM840.23 811.719" fill="#3a3b45" fill-rule="evenodd"/>
<path transform="matrix(.1,0,0,-.1,0,192)" d="M1304.49 1063.79C1317.27 1063.79 1329.53 1068.87 1338.59 1077.93 1347.66 1086.95 1352.73 1099.22 1352.73 1111.99 1352.73 1124.77 1347.66 1137.03 1338.59 1146.09 1329.53 1155.12 1317.27 1160.2 1304.49 1160.2 1291.68 1160.2 1279.41 1155.12 1270.39 1146.09 1261.33 1137.03 1256.25 1124.77 1256.25 1111.99 1256.25 1099.22 1261.33 1086.95 1270.39 1077.93 1279.41 1068.87 1291.68 1063.79 1304.49 1063.79ZM614.34 1063.79C627.109 1063.79 639.379 1068.87 648.441 1077.93 657.5 1086.95 662.578 1099.22 662.578 1111.99 662.578 1124.77 657.5 1137.03 648.441 1146.09 639.379 1155.12 627.109 1160.2 614.34 1160.2 601.52 1160.2 589.262 1155.12 580.23 1146.09 571.172 1137.03 566.09 1124.77 566.09 1111.99 566.09 1099.22 571.172 1086.95 580.23 1077.93 589.262 1068.87 601.52 1063.79 614.34 1063.79ZM515.039 900.66C490.98 900.66 469.609 890.898 454.609 872.93 441.84 857.191 434.879 837.5 434.879 817.191 425.551 820 415.859 821.48 406.09 821.641 383.09 821.641 362.301 812.891 347.621 797.031 334.488 783.441 326.25 765.898 324.102 747.109 321.949 728.359 326.051 709.41 335.738 693.199 322.621 682.5 313.281 667.852 309.18 651.41 305.621 638.051 302.031 609.879 321.051 581.09 313.91 570.16 309.691 557.621 308.711 544.609 307.77 531.559 310.121 518.52 315.551 506.68 330.699 472.27 368.551 445.27 441.988 416.211 487.578 398.121 529.41 386.52 529.73 386.41 582.621 371.762 637.109 363.789 691.949 362.66 778.949 362.66 841.129 389.379 876.879 441.84 934.449 526.25 926.328 603.48 851.641 677.93 810.551 719.18 783.09 779.801 777.461 793.16 765.859 832.621 735.27 876.52 684.691 876.52 671.211 876.289 658.012 872.891 646.129 866.52 634.262 860.199 624.059 851.09 616.41 840.039 601.559 858.711 587.031 873.398 573.949 881.84 556.52 893.629 536.09 900.16 515.039 900.66ZM515.039 841.371C522.621 841.371 531.949 838.09 542.031 831.719 573.789 811.559 634.801 706.719 657.23 665.941 664.648 652.301 677.539 646.52 688.98 646.52 711.988 646.52 729.801 669.18 691.211 698.121 633.051 741.559 653.359 812.582 681.129 816.879 682.301 817.191 683.629 817.191 684.691 817.191 709.922 817.191 721.051 773.75 721.051 773.75 721.051 773.75 753.711 691.879 809.801 635.82 865.738 579.922 868.711 535 827.891 475.23 800 434.449 746.719 422.148 691.949 422.148 635.391 422.148 577.23 435.469 544.73 443.789 543.09 444.219 345.078 500.16 370.16 547.578 374.34 555.59 381.289 558.871 390.078 558.871 425.391 558.871 489.488 506.371 517.27 506.371 523.359 506.371 527.66 508.871 529.57 515.27 541.289 557.539 350.59 575.309 366.602 636.41 369.57 647.23 377.148 651.559 387.969 651.559 434.57 651.559 539.379 569.531 561.328 569.531 562.969 569.531 564.301 570 564.922 571.02 575.898 588.828 569.801 601.289 492.191 648.121 414.84 695 360.391 723.16 391.25 756.84 394.801 760.699 399.84 762.461 406.09 762.461 453.121 762.461 564.301 661.332 564.301 661.332 564.301 661.332 594.301 630.199 612.539 630.199 616.719 630.199 620.27 631.68 622.66 635.82 635.391 657.461 503.012 757.73 495.59 799.102 490.551 827.27 499.141 841.371 515.039 841.371ZM515.039 841.371" fill="#ff9d0b"/>
<path transform="matrix(.1,0,0,-.1,0,192)" d="M827.891 475.23C868.711 535.121 865.738 580.078 809.801 635.98 753.711 691.879 721.051 773.91 721.051 773.91 721.051 773.91 708.871 821.332 681.129 816.879 653.359 812.461 633.051 741.559 691.211 698.121 749.262 654.648 679.648 625.16 657.23 665.941 634.961 706.719 573.789 811.559 542.031 831.719 510.43 851.762 488.16 840.621 495.59 799.102 503.012 757.73 635.551 657.461 622.66 635.98 609.73 614.18 564.301 661.332 564.301 661.332 564.301 661.332 422.27 790.512 391.25 756.84 360.391 723.16 414.84 695 492.191 648.121 569.801 601.289 575.898 588.828 564.922 571.02 553.789 553.199 382.66 697.5 366.602 636.289 350.59 575.309 541.289 557.699 529.57 515.391 517.699 473.16 395.121 595.199 370.16 547.73 344.961 500.16 543.09 444.219 544.73 443.789 608.551 427.191 771.051 392.031 827.891 475.23ZM827.891 475.23" fill="#ffd21e"/>
<path transform="matrix(.1,0,0,-.1,0,192)" d="M1403.79 900.66C1427.81 900.66 1449.34 890.898 1464.18 872.93 1476.95 857.191 1483.95 837.5 1483.95 817.191 1493.32 820 1503.05 821.52 1512.85 821.641 1535.86 821.641 1556.64 812.891 1571.33 797.031 1584.45 783.441 1592.73 765.898 1594.88 747.109 1597.03 728.359 1592.93 709.41 1583.2 693.199 1596.29 682.461 1605.55 667.809 1609.65 651.41 1613.2 638.051 1616.76 609.879 1597.77 581.09 1604.88 570.16 1609.14 557.621 1610.08 544.609 1611.05 531.559 1608.71 518.52 1603.24 506.68 1588.12 472.27 1550.27 445.27 1476.95 416.211 1431.25 398.121 1389.38 386.52 1389.1 386.41 1336.21 371.762 1281.72 363.789 1226.88 362.66 1139.88 362.66 1077.7 389.379 1041.91 441.84 984.34 526.25 992.5 603.48 1067.15 677.93 1108.4 719.18 1135.9 779.801 1141.52 793.16 1153.09 832.621 1183.52 876.52 1234.14 876.52 1247.58 876.289 1260.82 872.891 1272.7 866.52 1284.57 860.199 1294.77 851.09 1302.42 840.039 1317.27 858.711 1331.8 873.398 1345 881.84 1362.38 893.59 1382.77 900.16 1403.79 900.66ZM1403.79 841.371C1396.21 841.371 1386.99 838.09 1376.76 831.719 1345.16 811.559 1283.98 706.719 1261.6 665.941 1258.55 660.121 1254.02 655.23 1248.4 651.801 1242.81 648.398 1236.41 646.559 1229.84 646.48 1206.99 646.48 1189.02 669.18 1227.73 698.121 1285.78 741.559 1265.47 812.582 1237.7 816.879 1236.52 817.07 1235.31 817.191 1234.14 817.191 1208.91 817.191 1197.77 773.75 1197.77 773.75 1197.77 773.75 1165.12 691.879 1109.14 635.82 1053.05 579.922 1050.08 535 1091.05 475.23 1118.83 434.449 1172.23 422.148 1226.88 422.148 1283.55 422.148 1341.6 435.469 1374.26 443.789 1375.74 444.219 1573.87 500.16 1548.79 547.578 1544.49 555.59 1537.66 558.871 1528.91 558.871 1493.55 558.871 1429.3 506.371 1401.68 506.371 1395.47 506.371 1391.17 508.871 1389.38 515.27 1377.5 557.539 1568.24 575.309 1552.19 636.41 1549.38 647.23 1541.8 651.559 1530.82 651.559 1484.22 651.559 1379.45 569.531 1357.46 569.531 1355.98 569.531 1354.65 570 1354.06 571.02 1343.09 588.828 1349.02 601.289 1426.48 648.121 1504.1 695 1558.59 723.16 1527.42 756.84 1523.98 760.699 1518.95 762.461 1512.85 762.461 1465.66 762.461 1354.49 661.332 1354.49 661.332 1354.49 661.332 1324.53 630.199 1306.41 630.199 1304.38 630.078 1302.34 630.59 1300.59 631.559 1298.79 632.578 1297.3 634.02 1296.33 635.82 1283.4 657.461 1415.78 757.73 1423.2 799.102 1428.28 827.27 1419.65 841.371 1403.79 841.371ZM1403.79 841.371" fill="#ff9d0b"/>
<path transform="matrix(.1,0,0,-.1,0,192)" d="M1091.05 475.23C1050.23 535.121 1053.05 580.078 1109.14 635.98 1165.12 691.879 1197.77 773.91 1197.77 773.91 1197.77 773.91 1209.92 821.332 1237.85 816.879 1265.47 812.461 1285.78 741.559 1227.73 698.121 1169.57 654.648 1239.34 625.16 1261.6 665.941 1283.98 706.719 1345.16 811.559 1376.76 831.719 1408.4 851.762 1430.78 840.621 1423.2 799.102 1415.78 757.73 1283.4 657.461 1296.33 635.98 1309.1 614.18 1354.49 661.332 1354.49 661.332 1354.49 661.332 1496.68 790.512 1527.58 756.84 1558.44 723.16 1504.1 695 1426.64 648.121 1349.02 601.289 1343.09 588.828 1353.91 571.02 1365.04 553.199 1536.17 697.5 1552.19 636.289 1568.24 575.309 1377.66 557.699 1389.38 515.391 1401.25 473.16 1523.71 595.199 1548.79 547.73 1573.87 500.16 1375.86 444.219 1374.26 443.789 1310.27 427.191 1147.77 392.031 1091.05 475.23ZM1091.05 475.23" fill="#ffd21e"/>
</svg>
