<svg xmlns="http://www.w3.org/2000/svg" xmlns:xlink="http://www.w3.org/1999/xlink" xmlns:inkscape="http://www.inkscape.org/namespaces/inkscape" version="1.1" width="192" height="192" viewBox="0 0 192 192">
<path transform="matrix(.1,0,0,-.1,0,192)" d="M1470 1920H450C201.48 1920 0 1718.52 0 1470V450C0 201.48 201.48 0 450 0H1470C1718.52 0 1920 201.48 1920 450V1470C1920 1718.52 1718.52 1920 1470 1920ZM1470 1920" fill="#242938"/>
<path transform="matrix(.1,0,0,-.1,0,192)" d="M330.43 963.711 240.23 807.422H420.66L510.859 963.711Z" fill="#5e97f6"/>
<path transform="matrix(.1,0,0,-.1,0,192)" d="M150 651.172 240.23 807.422H420.66L330.43 651.172Z" fill="#5e97f6"/>
<path transform="matrix(.1,0,0,-.1,0,192)" d="M601.09 807.422H420.66L330.43 651.172H510.859Z" fill="#5e97f6"/>
<path transform="matrix(.1,0,0,-.1,0,192)" d="M781.52 807.422H601.09L510.859 651.172H691.289Z" fill="#5e97f6"/>
<path transform="matrix(.1,0,0,-.1,0,192)" d="M691.328 963.711 601.09 807.422H781.52L871.762 963.711Z" fill="#5e97f6"/>
<path transform="matrix(.1,0,0,-.1,0,192)" d="M781.52 1120 691.328 963.711H871.762L961.949 1120Z" fill="#5e97f6"/>
<path transform="matrix(.1,0,0,-.1,0,192)" d="M871.762 1276.25 781.52 1120H961.949L1052.19 1276.25Z" fill="#5e97f6"/>
<path transform="matrix(.1,0,0,-.1,0,192)" d="M961.949 1432.5 871.762 1276.25H1052.19L1142.38 1432.5Z" fill="#5e97f6"/>
<path transform="matrix(.1,0,0,-.1,0,192)" d="M150 651.172 240.23 494.922H420.66L330.43 651.172Z" fill="#2a56c6"/>
<path transform="matrix(.1,0,0,-.1,0,192)" d="M601.09 494.922H420.66L330.43 651.172H510.859Z" fill="#2a56c6"/>
<path transform="matrix(.1,0,0,-.1,0,192)" d="M781.52 494.922H601.09L510.859 651.172H691.289Z" fill="#2a56c6"/>
<path transform="matrix(.1,0,0,-.1,0,192)" d="M871.762 651.172 781.52 807.422 691.328 651.172 781.52 494.922Z" fill="#00796b"/>
<path transform="matrix(.1,0,0,-.1,0,192)" d="M1052.19 963.711 961.949 1120 871.762 963.711ZM1052.19 963.711" fill="#00796b"/>
<path transform="matrix(.1,0,0,-.1,0,192)" d="M1052.19 1276.25 961.949 1120 1052.19 963.711 1142.38 1120Z" fill="#00796b"/>
<path transform="matrix(.1,0,0,-.1,0,192)" d="M601.09 807.422 510.859 963.711 420.66 807.422ZM601.09 807.422" fill="#3367d6"/>
<path transform="matrix(.1,0,0,-.1,0,192)" d="M1052.19 963.711H871.762L781.52 807.422H961.949Z" fill="#26a69a"/>
<path transform="matrix(.1,0,0,-.1,0,192)" d="M1232.62 963.711H1052.19L961.949 807.422H1142.38Z" fill="#26a69a"/>
<path transform="matrix(.1,0,0,-.1,0,192)" d="M1413.05 1276.25 1322.85 1432.5 1232.62 1276.25 1322.85 1120Z" fill="#9c27b0"/>
<path transform="matrix(.1,0,0,-.1,0,192)" d="M1503.28 1120 1413.05 1276.25 1322.85 1120 1413.05 963.711Z" fill="#9c27b0"/>
<path transform="matrix(.1,0,0,-.1,0,192)" d="M1593.48 963.711 1503.28 1120 1413.05 963.711 1503.28 807.422Z" fill="#9c27b0"/>
<path transform="matrix(.1,0,0,-.1,0,192)" d="M1683.71 807.422 1593.48 963.711 1503.28 807.422 1593.48 651.172Z" fill="#9c27b0"/>
<path transform="matrix(.1,0,0,-.1,0,192)" d="M1773.95 651.172 1683.71 807.422 1593.48 651.172 1683.71 494.922Z" fill="#9c27b0"/>
<path transform="matrix(.1,0,0,-.1,0,192)" d="M1683.71 1432.5 1593.48 1276.25 1683.71 1120 1773.95 1276.25Z" fill="#9c27b0"/>
<path transform="matrix(.1,0,0,-.1,0,192)" d="M1503.28 1120 1593.48 1276.25 1683.71 1120 1593.48 963.711Z" fill="#9c27b0"/>
<path transform="matrix(.1,0,0,-.1,0,192)" d="M1413.05 963.711 1322.85 807.422 1413.05 651.172 1503.28 807.422Z" fill="#9c27b0"/>
<path transform="matrix(.1,0,0,-.1,0,192)" d="M1322.85 494.922 1232.62 651.172 1322.85 807.422 1413.05 651.172Z" fill="#9c27b0"/>
<path transform="matrix(.1,0,0,-.1,0,192)" d="M1142.38 494.922 1052.19 651.172H1232.62L1322.85 494.922Z" fill="#6a1b9a"/>
<path transform="matrix(.1,0,0,-.1,0,192)" d="M961.949 807.422H781.52L871.762 651.172H1052.19Z" fill="#00695c"/>
<path transform="matrix(.1,0,0,-.1,0,192)" d="M1142.38 807.422H961.949L1052.19 651.172ZM1142.38 807.422" fill="#00695c"/>
<path transform="matrix(.1,0,0,-.1,0,192)" d="M1142.38 1120 1232.62 963.711H1413.05L1322.85 1120Z" fill="#00695c"/>
<path transform="matrix(.1,0,0,-.1,0,192)" d="M1232.62 1276.25H1052.19L1142.38 1120H1322.85Z" fill="#00695c"/>
<path transform="matrix(.1,0,0,-.1,0,192)" d="M1683.71 494.922 1593.48 651.172H1413.05L1503.28 494.922Z" fill="#00695c"/>
<path transform="matrix(.1,0,0,-.1,0,192)" d="M1503.28 807.422 1413.05 651.172H1593.48ZM1503.28 807.422" fill="#00695c"/>
<path transform="matrix(.1,0,0,-.1,0,192)" d="M1322.85 1432.5H1142.38L1052.19 1276.25H1232.62Z" fill="#ea80fc"/>
<path transform="matrix(.1,0,0,-.1,0,192)" d="M1322.85 807.422H1142.38L1052.19 651.172H1232.62Z" fill="#ea80fc"/>
<path transform="matrix(.1,0,0,-.1,0,192)" d="M1413.05 963.711H1232.62L1142.38 807.422H1322.85Z" fill="#ea80fc"/>
<path transform="matrix(.1,0,0,-.1,0,192)" d="M1683.71 1432.5H1503.28L1413.05 1276.25H1593.48Z" fill="#ea80fc"/>
<path transform="matrix(.1,0,0,-.1,0,192)" d="M1503.28 1120 1413.05 1276.25H1593.48ZM1503.28 1120" fill="#ea80fc"/>
</svg>
