<svg xmlns="http://www.w3.org/2000/svg" xmlns:xlink="http://www.w3.org/1999/xlink" xmlns:inkscape="http://www.inkscape.org/namespaces/inkscape" version="1.1" width="192" height="192" viewBox="0 0 192 192">
<path transform="matrix(.1,0,0,-.1,0,192)" d="M1470 1920H450C201.48 1920 0 1718.52 0 1470V450C0 201.48 201.48 0 450 0H1470C1718.52 0 1920 201.48 1920 450V1470C1920 1718.52 1718.52 1920 1470 1920ZM1470 1920" fill="#242938"/>
<path transform="matrix(.1,0,0,-.1,0,192)" d="M872.77 1328.59 665.309 1433.32 437.621 1319.69 650.699 1212.66Z" fill="#4dabcf"/>
<path transform="matrix(.1,0,0,-.1,0,192)" d="M967.891 1280.59 1185.43 1170.78 959.73 1057.42 746.289 1164.65Z" fill="#4dabcf"/>
<path transform="matrix(.1,0,0,-.1,0,192)" d="M1258.4 1431.72 1481.88 1319.69 1282.03 1219.3 1064.02 1329.26Z" fill="#4dabcf"/>
<path transform="matrix(.1,0,0,-.1,0,192)" d="M1162.23 1480 961.051 1580.86 762.031 1481.56 969.34 1376.99Z" fill="#4dabcf"/>
<path transform="matrix(.1,0,0,-.1,0,192)" d="M1004.92 613.672V339.141L1248.67 460.781 1248.4 735.43Z" fill="#4dabcf"/>
<path transform="matrix(.1,0,0,-.1,0,192)" d="M1248.28 831.289 1248.05 1103.05 1004.92 982.191V710.352Z" fill="#4dabcf"/>
<path transform="matrix(.1,0,0,-.1,0,192)" d="M1540.9 882.23V606.602L1333.01 502.852 1332.85 777.23Z" fill="#4dabcf"/>
<path transform="matrix(.1,0,0,-.1,0,192)" d="M1540.9 978.551V1248.63L1332.62 1145.12 1332.81 872.77Z" fill="#4dabcf"/>
<path transform="matrix(.1,0,0,-.1,0,192)" d="M918.91 982.191 754.73 1064.73V708.012C754.73 708.012 553.98 1135.16 535.391 1173.55 532.969 1178.48 523.121 1183.91 520.59 1185.23 484.609 1204.14 379.102 1257.58 379.102 1257.58V627.34L525.039 549.34V878.75C525.039 878.75 723.672 497.07 725.66 492.891 727.699 488.711 747.621 448.52 768.949 434.379 797.301 415.59 918.949 342.461 918.949 342.461ZM918.91 982.191" fill="#4d77cf"/>
</svg>
