<svg xmlns="http://www.w3.org/2000/svg" xmlns:xlink="http://www.w3.org/1999/xlink" xmlns:inkscape="http://www.inkscape.org/namespaces/inkscape" version="1.1" width="192" height="192" viewBox="0 0 192 192">
<path transform="matrix(.1,0,0,-.1,0,192)" d="M1470 1920H450C201.48 1920 0 1718.52 0 1470V450C0 201.48 201.48 0 450 0H1470C1718.52 0 1920 201.48 1920 450V1470C1920 1718.52 1718.52 1920 1470 1920ZM1470 1920" fill="#242938"/>
<path transform="matrix(.1,0,0,-.1,0,192)" d="M777.852 1237.07H921.29V1534.9219H777.852Z" fill="#ffffff"/>
<path transform="matrix(.1,0,0,-.1,0,192)" d="M777.852 625.27H921.29V923.122H777.852Z" fill="#ffffff"/>
<path transform="matrix(.1,0,0,-.1,0,192)" d="M777.852 1009.61H921.29V1150.161H777.852Z" fill="#ffca00"/>
<path transform="matrix(.1,0,0,-.1,0,192)" d="M547.5 300H690.941V1290H547.5Z" fill="#ffffff"/>
<path transform="matrix(.1,0,0,-.1,0,192)" d="M1003.48 379.531H1146.921V677.379H1003.48Z" fill="#ffffff"/>
<path transform="matrix(.1,0,0,-.1,0,192)" d="M1003.48 991.84H1146.921V1289.649H1003.48Z" fill="#ffffff"/>
<path transform="matrix(.1,0,0,-.1,0,192)" d="M1003.48 764.371H1146.921V904.87899H1003.48Z" fill="#e70488"/>
<path transform="matrix(.1,0,0,-.1,0,192)" d="M1229.06 622.5H1372.5011V1612.5H1229.06Z" fill="#ffffff"/>
</svg>
